<mxfile host="65bd71144e">
    <diagram id="nF-Y6DNJyK08AlNpLxls" name="Page-1">
        <mxGraphModel dx="585" dy="514" grid="1" gridSize="10" guides="1" tooltips="1" connect="1" arrows="1" fold="1" page="1" pageScale="1" pageWidth="850" pageHeight="1100" math="0" shadow="0">
            <root>
                <mxCell id="0"/>
                <mxCell id="1" parent="0"/>
                <mxCell id="3" value="" style="whiteSpace=wrap;html=1;rounded=1;" parent="1" vertex="1">
                    <mxGeometry x="10" y="10" width="210" height="250" as="geometry"/>
                </mxCell>
                <mxCell id="4" value="" style="whiteSpace=wrap;html=1;rounded=1;glass=0;" parent="1" vertex="1">
                    <mxGeometry x="25" y="70" width="190" height="180" as="geometry"/>
                </mxCell>
                <mxCell id="5" value="" style="whiteSpace=wrap;html=1;rounded=1;" parent="1" vertex="1">
                    <mxGeometry x="42.5" y="130" width="155" height="110" as="geometry"/>
                </mxCell>
                <mxCell id="10" value="&lt;u&gt;&lt;b&gt;M1&lt;/b&gt;&lt;/u&gt;: &lt;b&gt;Narrow Money&lt;/b&gt;&lt;br&gt;&lt;ul style=&quot;&quot;&gt;&lt;li style=&quot;&quot;&gt;currency&lt;/li&gt;&lt;li style=&quot;&quot;&gt;current accounts&lt;/li&gt;&lt;/ul&gt;" style="text;strokeColor=none;align=left;fillColor=none;html=1;verticalAlign=middle;whiteSpace=wrap;rounded=0;" parent="1" vertex="1">
                    <mxGeometry x="60" y="130" width="130" height="100" as="geometry"/>
                </mxCell>
                <mxCell id="11" value="&lt;b&gt;&lt;u&gt;M2&lt;/u&gt;&lt;/b&gt;" style="text;strokeColor=none;align=left;fillColor=none;html=1;verticalAlign=middle;whiteSpace=wrap;rounded=0;" vertex="1" parent="1">
                    <mxGeometry x="60" y="70" width="60" height="30" as="geometry"/>
                </mxCell>
                <mxCell id="12" value="&lt;u&gt;M3&lt;/u&gt;: Broad Money" style="text;strokeColor=none;align=left;fillColor=none;html=1;verticalAlign=middle;whiteSpace=wrap;rounded=0;fontStyle=1" vertex="1" parent="1">
                    <mxGeometry x="60" y="10" width="110" height="30" as="geometry"/>
                </mxCell>
            </root>
        </mxGraphModel>
    </diagram>
</mxfile>